<?xml version="1.0"?>
<svg xmlns="http://www.w3.org/2000/svg" height="512px" viewBox="-40 0 512 512" width="512px" class=""><g><path d="m158.53125 351.335938h273.132812v50.332031h-273.132812zm0 0" data-original="#000000" class="active-path" data-old_color="#FBF9F9" fill="#FCFAFA"/><path d="m376.5 0h-217.96875v80.335938h273.132812v-25.167969c0-30.421875-24.746093-55.167969-55.164062-55.167969zm0 0" data-original="#000000" class="active-path" data-old_color="#FBF9F9" fill="#FCFAFA"/><path d="m158.53125 271h273.132812v50.335938h-273.132812zm0 0" data-original="#000000" class="active-path" data-old_color="#FBF9F9" fill="#FCFAFA"/><path d="m158.53125 190.667969h273.132812v50.332031h-273.132812zm0 0" data-original="#000000" class="active-path" data-old_color="#FBF9F9" fill="#FCFAFA"/><path d="m158.53125 110.335938h273.132812v50.332031h-273.132812zm0 0" data-original="#000000" class="active-path" data-old_color="#FBF9F9" fill="#FCFAFA"/><path d="m0 55.167969v401.667969c0 30.417968 24.746094 55.164062 55.164062 55.164062h73.367188v-512h-73.367188c-30.417968 0-55.164062 24.746094-55.164062 55.167969zm68.660156 270.558593c2.789063-2.789062 6.660156-4.390624 10.601563-4.390624 3.949219 0 7.816406 1.601562 10.609375 4.390624 2.789062 2.789063 4.398437 6.660157 4.398437 10.609376 0 3.949218-1.609375 7.8125-4.398437 10.609374-2.792969 2.792969-6.660156 4.390626-10.609375 4.390626-3.941407 0-7.8125-1.597657-10.601563-4.390626-2.789062-2.800781-4.390625-6.660156-4.390625-10.609374 0-3.949219 1.601563-7.820313 4.390625-10.609376zm-4.390625-69.730468c0-3.949219 1.601563-7.808594 4.390625-10.609375 2.789063-2.789063 6.660156-4.390625 10.609375-4.390625 3.941407 0 7.808594 1.601562 10.601563 4.390625 2.789062 2.789062 4.390625 6.660156 4.390625 10.609375 0 3.949218-1.601563 7.820312-4.390625 10.609375-2.792969 2.789062-6.660156 4.390625-10.601563 4.390625-3.949219 0-7.820312-1.601563-10.609375-4.390625-2.789062-2.789063-4.390625-6.660157-4.390625-10.609375zm4.390625-171.269532c2.789063-2.789062 6.660156-4.390624 10.601563-4.390624 3.957031 0 7.816406 1.601562 10.609375 4.390624 2.789062 2.800782 4.398437 6.660157 4.398437 10.609376 0 3.941406-1.609375 7.8125-4.398437 10.601562-2.792969 2.800781-6.660156 4.398438-10.609375 4.398438-3.941407 0-7.8125-1.597657-10.601563-4.398438-2.789062-2.789062-4.390625-6.648438-4.390625-10.601562 0-3.949219 1.601563-7.820313 4.390625-10.609376zm0 80.332032c2.789063-2.792969 6.660156-4.390625 10.601563-4.390625 3.949219 0 7.816406 1.597656 10.609375 4.390625 2.789062 2.789062 4.390625 6.660156 4.390625 10.609375s-1.601563 7.820312-4.390625 10.609375c-2.792969 2.789062-6.660156 4.390625-10.609375 4.390625-3.941407 0-7.8125-1.601563-10.601563-4.390625-2.789062-2.789063-4.398437-6.660156-4.398437-10.609375s1.609375-7.820313 4.398437-10.609375zm0 241c2.789063-2.792969 6.660156-4.390625 10.609375-4.390625 3.941407 0 7.808594 1.597656 10.601563 4.390625 2.789062 2.789062 4.398437 6.660156 4.398437 10.609375s-1.609375 7.820312-4.398437 10.609375c-2.792969 2.789062-6.660156 4.390625-10.601563 4.390625-3.949219 0-7.820312-1.601563-10.609375-4.390625-2.789062-2.800782-4.398437-6.671875-4.398437-10.609375 0-3.949219 1.609375-7.8125 4.398437-10.609375zm0 0" data-original="#000000" class="active-path" data-old_color="#FBF9F9" fill="#FCFAFA"/><path d="m158.53125 512h217.96875c30.417969 0 55.164062-24.746094 55.164062-55.164062v-25.167969h-273.132812zm0 0" data-original="#000000" class="active-path" data-old_color="#FBF9F9" fill="#FCFAFA"/></g> </svg>
