<?xml version="1.0"?>
<svg xmlns="http://www.w3.org/2000/svg" height="512px" version="1.1" viewBox="0 0 512.00098 512" width="512px" class=""><g><g id="surface1">
<path d="M 437.019531 74.980469 C 388.667969 26.628906 324.378906 0 256 0 C 187.617188 0 123.332031 26.628906 74.980469 74.980469 C 26.628906 123.332031 0 187.621094 0 256 C 0 324.382812 26.628906 388.667969 74.980469 437.019531 C 123.332031 485.371094 187.621094 512 256 512 C 324.378906 512 388.667969 485.371094 437.019531 437.019531 C 485.371094 388.667969 512 324.382812 512 256 C 512 187.621094 485.371094 123.332031 437.019531 74.980469 Z M 256 434.570312 C 157.535156 434.570312 77.429688 354.464844 77.429688 256 C 77.429688 157.535156 157.535156 77.429688 256 77.429688 C 354.460938 77.429688 434.570312 157.535156 434.570312 256 C 434.570312 354.464844 354.464844 434.570312 256 434.570312 Z M 256 434.570312 " data-original="#000000" class="active-path" data-old_color="#FDFCFC" fill="#FFFFFF"/>
<path d="M 256 107.453125 C 174.089844 107.453125 107.449219 174.089844 107.449219 256 C 107.449219 337.910156 174.089844 404.550781 256 404.550781 C 337.910156 404.550781 404.546875 337.910156 404.546875 256 C 404.550781 174.089844 337.910156 107.453125 256 107.453125 Z M 271.058594 338.015625 C 271.007812 338.503906 270.925781 338.996094 270.835938 339.476562 C 270.738281 339.945312 270.617188 340.425781 270.476562 340.898438 C 270.328125 341.367188 270.167969 341.828125 269.976562 342.277344 C 269.785156 342.726562 269.578125 343.179688 269.34375 343.609375 C 269.117188 344.039062 268.867188 344.46875 268.59375 344.871094 C 268.324219 345.28125 268.027344 345.679688 267.722656 346.0625 C 267.40625 346.441406 267.074219 346.8125 266.722656 347.152344 C 266.382812 347.503906 266.011719 347.832031 265.632812 348.140625 C 265.253906 348.453125 264.851562 348.753906 264.453125 349.023438 C 264.042969 349.292969 263.621094 349.542969 263.179688 349.773438 C 262.75 350.003906 262.308594 350.214844 261.859375 350.402344 C 261.410156 350.585938 260.941406 350.753906 260.46875 350.894531 C 260.007812 351.035156 259.527344 351.164062 259.046875 351.253906 C 258.566406 351.355469 258.078125 351.425781 257.585938 351.476562 C 257.105469 351.523438 256.605469 351.554688 256.113281 351.554688 C 255.625 351.554688 255.125 351.523438 254.632812 351.476562 C 254.15625 351.425781 253.664062 351.355469 253.183594 351.253906 C 252.703125 351.164062 252.222656 351.035156 251.75 350.894531 C 251.292969 350.753906 250.820312 350.585938 250.371094 350.402344 C 249.921875 350.214844 249.480469 350.003906 249.039062 349.773438 C 248.609375 349.542969 248.1875 349.292969 247.777344 349.023438 C 247.378906 348.753906 246.976562 348.453125 246.597656 348.140625 C 246.21875 347.832031 245.847656 347.503906 245.496094 347.152344 C 245.15625 346.8125 244.816406 346.441406 244.507812 346.0625 C 244.195312 345.679688 243.90625 345.28125 243.636719 344.871094 C 243.363281 344.46875 243.113281 344.039062 242.886719 343.609375 C 242.65625 343.179688 242.445312 342.726562 242.253906 342.277344 C 242.066406 341.828125 241.902344 341.367188 241.753906 340.898438 C 241.613281 340.425781 241.492188 339.945312 241.394531 339.476562 C 241.304688 338.996094 241.222656 338.503906 241.175781 338.015625 C 241.125 337.523438 241.105469 337.035156 241.105469 336.542969 C 241.105469 336.054688 241.125 335.554688 241.175781 335.0625 C 241.222656 334.574219 241.304688 334.09375 241.394531 333.613281 C 241.496094 333.132812 241.613281 332.652344 241.753906 332.179688 C 241.902344 331.710938 242.066406 331.25 242.253906 330.800781 C 242.445312 330.347656 242.65625 329.898438 242.886719 329.46875 C 243.113281 329.039062 243.363281 328.617188 243.636719 328.207031 C 243.90625 327.796875 244.195312 327.398438 244.507812 327.027344 C 244.816406 326.636719 245.15625 326.277344 245.496094 325.925781 C 245.847656 325.574219 246.21875 325.246094 246.597656 324.9375 C 246.976562 324.625 247.378906 324.335938 247.777344 324.066406 C 248.1875 323.785156 248.609375 323.535156 249.039062 323.304688 C 249.480469 323.074219 249.921875 322.863281 250.371094 322.683594 C 250.820312 322.492188 251.292969 322.324219 251.75 322.183594 C 252.222656 322.042969 252.703125 321.921875 253.183594 321.824219 C 253.664062 321.722656 254.15625 321.652344 254.632812 321.601562 C 255.613281 321.503906 256.617188 321.503906 257.585938 321.601562 C 258.078125 321.652344 258.566406 321.722656 259.046875 321.824219 C 259.527344 321.921875 260.007812 322.042969 260.46875 322.183594 C 260.941406 322.324219 261.410156 322.492188 261.859375 322.683594 C 262.308594 322.863281 262.75 323.074219 263.179688 323.304688 C 263.621094 323.535156 264.039062 323.785156 264.453125 324.066406 C 264.851562 324.335938 265.253906 324.625 265.632812 324.9375 C 266.011719 325.246094 266.382812 325.574219 266.722656 325.925781 C 267.074219 326.277344 267.40625 326.636719 267.722656 327.027344 C 268.027344 327.398438 268.324219 327.796875 268.59375 328.207031 C 268.867188 328.617188 269.117188 329.039062 269.34375 329.46875 C 269.574219 329.898438 269.785156 330.347656 269.976562 330.800781 C 270.167969 331.25 270.328125 331.710938 270.476562 332.179688 C 270.617188 332.652344 270.738281 333.132812 270.835938 333.613281 C 270.925781 334.09375 271.007812 334.574219 271.058594 335.0625 C 271.097656 335.554688 271.128906 336.054688 271.128906 336.542969 C 271.128906 337.035156 271.097656 337.523438 271.058594 338.015625 Z M 271.128906 289.503906 C 271.128906 297.796875 264.40625 304.515625 256.117188 304.515625 C 247.828125 304.515625 241.105469 297.796875 241.105469 289.503906 L 241.105469 173.824219 C 241.105469 165.53125 247.828125 158.8125 256.117188 158.8125 C 264.40625 158.8125 271.128906 165.53125 271.128906 173.824219 Z M 271.128906 289.503906 " data-original="#000000" class="active-path" data-old_color="#FDFCFC" fill="#FFFFFF"/>
</g></g> </svg>
